<svg width="24" height="24" viewBox="0 0 24 24" fill="none" xmlns="http://www.w3.org/2000/svg">
<path d="M12 4.7999C8.025 4.7999 4.8 8.0249 4.8 11.9999C4.8 15.9749 8.025 19.1999 12 19.1999C12.6638 19.1999 13.2 19.7362 13.2 20.3999C13.2 21.0637 12.6638 21.5999 12 21.5999C6.6975 21.5999 2.4 17.3024 2.4 11.9999C2.4 6.6974 6.6975 2.3999 12 2.3999C17.3025 2.3999 21.6 6.6974 21.6 11.9999V13.1999C21.6 15.1874 19.9875 16.7999 18 16.7999C16.9013 16.7999 15.915 16.3049 15.255 15.5287C14.4 16.3162 13.2563 16.7999 12 16.7999C9.34875 16.7999 7.2 14.6512 7.2 11.9999C7.2 9.34865 9.34875 7.1999 12 7.1999C13.0463 7.1999 14.0138 7.53365 14.8013 8.10365C15.015 7.91615 15.2925 7.7999 15.6 7.7999C16.2638 7.7999 16.8 8.33615 16.8 8.9999V13.1999C16.8 13.8637 17.3363 14.3999 18 14.3999C18.6638 14.3999 19.2 13.8637 19.2 13.1999V11.9999C19.2 8.0249 15.975 4.7999 12 4.7999ZM14.4 11.9999C14.4 10.6762 13.3238 9.5999 12 9.5999C10.6762 9.5999 9.6 10.6762 9.6 11.9999C9.6 13.3237 10.6762 14.3999 12 14.3999C13.3238 14.3999 14.4 13.3237 14.4 11.9999Z" fill="#00CAFF"/>
</svg>
