<svg width="150" height="150" viewBox="0 0 150 150" fill="none" xmlns="http://www.w3.org/2000/svg">
<g clip-path="url(#clip0_49_35)">
<path d="M42.2812 62.5781C42.1172 67.875 44.7656 70.2422 44.8359 71.7187C44.8125 72.0234 44.6953 72.3047 44.5313 72.5625C44.3672 72.8203 44.1328 73.0312 43.875 73.1719L40.875 75.2812C40.4766 75.5625 40.0313 75.7031 39.5625 75.7265C39.4688 75.7265 37.6406 76.1484 34.7578 69.7265C33 71.9297 30.7734 73.6875 28.2188 74.8828C25.6641 76.0781 22.8984 76.6875 20.0859 76.6406C16.2656 76.8515 5.92969 74.4843 6.46875 63.4687C6.09375 54.4922 14.4609 48.914 23.0859 49.4062C24.75 49.4062 28.1484 49.5 34.1016 50.8828V47.2265C34.7344 41.0156 30.6563 36.2109 23.6016 36.9375C23.0391 36.9375 19.0547 36.8203 12.8672 39.3047C11.1328 40.1015 10.9219 39.9609 10.3359 39.9609C8.60156 39.9609 9.30469 34.9219 9.65625 34.289C10.875 32.789 18.0703 29.9765 25.1016 30.0234C29.8125 29.6015 34.5 31.0547 38.1563 34.0781C39.6328 35.7422 40.7813 37.6875 41.4844 39.7969C42.1875 41.9062 42.4688 44.1328 42.3047 46.3594V62.6015L42.2812 62.5781ZM22.0313 70.1718C29.625 70.0547 32.8594 65.4843 33.5859 63.0234C34.1719 60.6562 34.0781 59.1797 34.0781 56.6015C31.8047 56.0625 28.5469 55.4531 24.7969 55.4531C21.2344 55.1953 14.7656 56.7656 15.0234 63.0234C14.7422 66.9609 17.625 70.3828 22.0547 70.1718H22.0313ZM62.0859 75.5859C60.2344 75.75 59.3906 74.4375 59.1094 73.1484L47.4375 34.5468C47.2031 33.8906 47.0625 33.2344 46.9922 32.5312C46.9453 32.25 47.0156 31.9687 47.1797 31.7343C47.3438 31.5 47.6016 31.3594 47.8828 31.3125C47.9297 31.3125 47.3906 31.3125 53.0859 31.3125C55.1484 31.1015 55.8047 32.7187 56.0391 33.75L64.4297 66.75L72.2109 33.75C72.3281 33 72.8906 31.1484 75.2109 31.3594H79.2422C79.7578 31.3125 81.8438 31.2422 82.2188 33.7968L90.0234 67.1953L98.6719 33.7734C98.7891 33.2578 99.3047 31.1015 101.648 31.3359H106.266C106.477 31.3125 107.719 31.1484 107.508 33.3515C107.414 33.7734 108.305 30.8437 95.1328 73.1719C94.875 74.4609 94.0078 75.7734 92.1563 75.6094H87.7734C85.2188 75.8906 84.8438 73.3359 84.7969 73.1015L77.0156 40.9687L69.3281 73.0781C69.2812 73.3359 68.9297 75.8672 66.3516 75.5859H62.0625H62.0859ZM126.188 76.8984C124.805 76.8984 118.242 76.8281 112.734 74.0156C112.195 73.7812 111.727 73.4062 111.398 72.8906C111.07 72.375 110.906 71.8125 110.906 71.2265V68.7187C110.906 66.7265 112.359 67.1015 112.969 67.3359C115.312 68.2968 116.836 69 119.719 69.5859C128.32 71.3437 132.094 69.0468 133.008 68.5312C136.102 66.7031 136.336 62.5078 134.25 60.3515C131.789 58.289 130.617 58.2187 121.805 55.4297C120.727 55.125 111.562 52.2422 111.539 43.1484C111.398 36.539 117.398 29.9765 127.828 30.0234C130.805 30.0234 138.703 30.9843 140.859 33.6797C141.188 34.1718 141.328 34.7578 141.305 35.3203V37.6875C141.305 38.7187 140.93 39.2578 140.156 39.2578C138.352 39.0468 135.141 36.6328 128.625 36.7265C127.008 36.6328 119.273 36.9375 119.625 42.5859C119.531 47.039 125.859 48.7031 126.586 48.8906C135.141 51.4687 137.977 51.8906 141.375 55.8281C145.383 61.0312 143.227 67.1484 142.383 68.8125C137.906 77.6015 126.352 76.875 126.141 76.875L126.188 76.8984ZM135.609 101.484C119.203 113.602 95.3672 120.047 75.0234 120.047C47.5781 120.234 21.0469 110.133 0.656253 91.7578C-0.867185 90.375 0.468753 88.4765 2.34375 89.5312C24.9609 102.469 50.5547 109.266 76.6172 109.242C96.0703 109.148 115.312 105.187 133.242 97.6406C136.008 96.4687 138.352 99.4687 135.609 101.484ZM142.453 93.6797C140.344 90.9844 128.555 92.414 123.281 93.0469C121.687 93.2344 121.43 91.8515 122.859 90.8203C132.258 84.2109 147.68 86.1093 149.437 88.3359C151.195 90.5625 148.945 106.008 140.156 113.391C138.797 114.539 137.508 113.93 138.117 112.43C140.086 107.437 144.539 96.375 142.43 93.6797H142.453Z" fill="url(#paint0_linear_49_35)"/>
</g>
<defs>
<linearGradient id="paint0_linear_49_35" x1="22.8288" y1="-4.58563" x2="177.567" y2="75.5855" gradientUnits="userSpaceOnUse">
<stop stop-color="#00CAFF"/>
<stop offset="0.394231" stop-color="#C5EEFF"/>
<stop offset="0.5" stop-color="#FAF8FF"/>
<stop offset="1" stop-color="#262626"/>
</linearGradient>
<clipPath id="clip0_49_35">
<rect width="150" height="150" fill="white"/>
</clipPath>
</defs>
</svg>
