<svg width="32" height="32" viewBox="0 0 32 32" fill="none" xmlns="http://www.w3.org/2000/svg">
<path d="M25.2301 7.42499C25.7951 6.74499 25.7051 5.73499 25.0251 5.16999C24.3451 4.60499 23.3351 4.69499 22.7701 5.37499L16.0001 13.5L9.23009 5.37499C8.66509 4.69499 7.65508 4.60499 6.97508 5.16999C6.29508 5.73499 6.20508 6.74499 6.77008 7.42499L13.9151 16L6.77008 24.575C6.20508 25.255 6.29508 26.265 6.97508 26.83C7.65508 27.395 8.66509 27.305 9.23009 26.625L16.0001 18.5L22.7701 26.625C23.3351 27.305 24.3451 27.395 25.0251 26.83C25.7051 26.265 25.7951 25.255 25.2301 24.575L18.0851 16L25.2301 7.42499Z" fill="url(#paint0_linear_10_25)"/>
<defs>
<linearGradient id="paint0_linear_10_25" x1="9.3223" y1="-3.78829" x2="32.7793" y2="2.46895" gradientUnits="userSpaceOnUse">
<stop stop-color="#00CAFF"/>
<stop offset="0.394231" stop-color="#C5EEFF"/>
<stop offset="0.5" stop-color="#FAF8FF"/>
<stop offset="1" stop-color="#262626"/>
</linearGradient>
</defs>
</svg>
