<svg width="150" height="150" viewBox="0 0 150 150" fill="none" xmlns="http://www.w3.org/2000/svg">
<path d="M110.695 22.5H22.5V110.695C22.5 115.148 24.2813 119.414 27.4219 122.578C30.5625 125.742 34.8516 127.5 39.3047 127.5H110.695C115.148 127.5 119.414 125.719 122.578 122.578C125.742 119.438 127.5 115.148 127.5 110.695V39.3047C127.5 34.8516 125.719 30.5859 122.578 27.4219C119.438 24.2578 115.148 22.5 110.695 22.5ZM100.406 116.109C98.6016 114.117 97.6641 111.258 97.5938 107.531H104.93C104.977 110.836 106.125 112.477 108.398 112.477C109.547 112.477 110.367 112.102 110.859 111.375C111.328 110.648 111.562 109.5 111.562 107.906C111.562 106.641 111.258 105.586 110.625 104.766C109.805 103.781 108.727 103.008 107.531 102.539L104.812 101.25C102.398 100.102 100.641 98.7188 99.5391 97.125C98.4844 95.5312 97.9688 93.3047 97.9688 90.4688C97.9688 87.2812 98.9062 84.7031 100.734 82.7109C102.633 80.7188 105.211 79.7344 108.516 79.7344C111.703 79.7344 114.164 80.7188 115.898 82.6641C117.656 84.6328 118.594 87.4219 118.664 91.0781H111.609C111.656 89.8828 111.398 88.6875 110.906 87.6094C110.508 86.8125 109.734 86.4141 108.562 86.4141C106.5 86.4141 105.469 87.6328 105.469 90.0938C105.469 91.3359 105.727 92.2969 106.219 93.0469C106.945 93.8672 107.859 94.5 108.891 94.875L111.492 96.0234C114.188 97.2656 116.109 98.7656 117.305 100.57C118.5 102.375 119.086 104.789 119.086 107.836C119.086 111.469 118.148 114.258 116.203 116.203C114.281 118.148 111.633 119.133 108.211 119.133C104.789 119.133 102.211 118.148 100.383 116.156L100.406 116.109ZM76.7344 116.109C74.9297 114.117 73.9922 111.258 73.9219 107.531H81.2578C81.3047 110.836 82.4531 112.477 84.7266 112.477C85.875 112.477 86.6953 112.102 87.1641 111.375C87.6328 110.648 87.8672 109.5 87.8672 107.906C87.8672 106.641 87.5625 105.586 86.9531 104.766C86.1328 103.781 85.0547 103.008 83.8594 102.539L81.1406 101.25C78.7266 100.102 76.9688 98.7188 75.8672 97.125C74.8125 95.5312 74.2969 93.3047 74.2969 90.4688C74.2969 87.2812 75.2344 84.7031 77.0625 82.7109C78.9609 80.7188 81.5391 79.7344 84.8438 79.7344C88.0312 79.7344 90.4922 80.7188 92.2031 82.6641C93.9844 84.6328 94.8984 87.4219 94.9922 91.0781H87.9375C87.9844 89.8828 87.7266 88.6875 87.2344 87.6094C86.8359 86.8125 86.0625 86.4141 84.8906 86.4141C82.8281 86.4141 81.7969 87.6328 81.7969 90.0938C81.7969 91.3359 82.0547 92.2969 82.5469 93.0469C83.2734 93.8672 84.1875 94.5 85.2188 94.875L87.8203 96.0234C90.5156 97.2656 92.4375 98.7656 93.6328 100.57C94.8281 102.375 95.4141 104.789 95.4141 107.836C95.4141 111.469 94.4531 114.258 92.5312 116.203C90.6094 118.148 87.9609 119.133 84.5391 119.133C81.1172 119.133 78.5391 118.148 76.7109 116.156L76.7344 116.109ZM51.9844 116.367C50.0156 114.562 49.0547 111.867 49.0547 108.281V90.6094C49.0547 87.0469 50.0859 84.3516 52.1484 82.5C54.2344 80.6719 57 79.7344 60.3984 79.7344C63.7031 79.7344 66.3047 80.6719 68.2266 82.5469C70.1719 84.4219 71.1562 87.2344 71.1562 90.9609V92.3672H63.3984V91.0078C63.3984 89.5781 63.0938 88.5 62.4609 87.8203C62.2031 87.4688 61.8516 87.1875 61.4531 87C61.0547 86.8125 60.6328 86.7188 60.1875 86.7422C58.9219 86.7422 58.0312 87.1641 57.5156 88.0547C56.9766 89.2734 56.7422 90.5859 56.8125 91.8984V107.25C56.8125 110.461 57.9375 112.078 60.1875 112.125C61.2422 112.125 62.0391 111.75 62.5781 111C63.1641 110.039 63.4453 108.938 63.3984 107.812V106.664H71.1562V107.859C71.1562 110.344 70.6641 112.43 69.7031 114.094C68.7656 115.711 67.3828 117.023 65.6953 117.844C63.8906 118.711 61.9219 119.133 59.9297 119.086C56.6016 119.086 53.9531 118.172 52.0078 116.367H51.9844Z" fill="url(#paint0_linear_49_32)"/>
<defs>
<linearGradient id="paint0_linear_49_32" x1="38.4844" y1="-17.75" x2="163.748" y2="21.2331" gradientUnits="userSpaceOnUse">
<stop stop-color="#00CAFF"/>
<stop offset="0.394231" stop-color="#C5EEFF"/>
<stop offset="0.5" stop-color="#FAF8FF"/>
<stop offset="1" stop-color="#262626"/>
</linearGradient>
</defs>
</svg>
