<svg width="150" height="150" viewBox="0 0 150 150" fill="none" xmlns="http://www.w3.org/2000/svg">
<path d="M35.3906 127.922H52.6641V110.672H35.3906V127.922ZM20.9531 96.2344V110.672H35.3906V96.2344H20.9531ZM130.219 56.4609C124.828 39.0703 110.906 25.2187 93.5156 19.7578C53.6484 7.31249 16.875 36.9609 16.875 74.9765H39.3281C39.3281 51.1172 63 32.6719 88.1016 41.7656C97.4062 45.1172 104.859 52.5703 108.211 61.8515C117.375 86.9297 98.9062 110.555 75.0703 110.602V110.672H75V133.125C113.109 133.125 142.687 96.375 130.219 56.4609ZM75.0703 110.602V88.2656H52.6641V110.672H75V110.602H75.0703Z" fill="url(#paint0_linear_49_41)"/>
<defs>
<linearGradient id="paint0_linear_49_41" x1="34.57" y1="-27.6831" x2="173.242" y2="15.4691" gradientUnits="userSpaceOnUse">
<stop stop-color="#00CAFF"/>
<stop offset="0.394231" stop-color="#C5EEFF"/>
<stop offset="0.5" stop-color="#FAF8FF"/>
<stop offset="1" stop-color="#262626"/>
</linearGradient>
</defs>
</svg>
