<svg width="150" height="150" viewBox="0 0 150 150" fill="none" xmlns="http://www.w3.org/2000/svg">
<g clip-path="url(#clip0_49_11)">
<path d="M82.0078 70.3828H66.5156V56.4609H82.0078V70.3828ZM82.0078 22.5H66.5156V36.7266H82.0078V22.5ZM100.336 56.4375H84.8437V70.3594H100.336V56.4375ZM63.7031 39.5391H48.2109V53.625H63.7031V39.5391ZM82.0078 39.5391H66.5156V53.625H82.0078V39.5391ZM146.883 62.9766C143.508 60.7031 135.727 59.8828 129.75 61.0078C128.977 55.3828 125.836 50.4844 120.117 46.0781L116.836 43.8984L114.656 47.1797C110.344 53.6953 109.172 64.4297 113.789 71.5078C111.75 72.6094 107.742 74.1094 102.445 74.0156H0.5625C-1.47656 85.9219 1.92188 101.391 10.875 112.008C19.5703 122.297 32.6016 127.523 49.6406 127.523C86.5312 127.523 113.836 110.531 126.609 79.6641C131.625 79.7578 142.453 79.6875 148.008 69.0703C148.359 68.4844 149.555 65.9766 150 65.0625L146.883 62.9766ZM27.0937 56.4375H11.625V70.3594H27.1172V56.4375H27.0937ZM45.3984 56.4375H29.9062V70.3594H45.3984V56.4375ZM63.7031 56.4375H48.2109V70.3594H63.7031V56.4375ZM45.3984 39.5391H29.9062V53.625H45.3984V39.5391Z" fill="url(#paint0_linear_49_11)"/>
</g>
<defs>
<linearGradient id="paint0_linear_49_11" x1="22.8262" y1="-17.759" x2="186.732" y2="55.0997" gradientUnits="userSpaceOnUse">
<stop stop-color="#00CAFF"/>
<stop offset="0.394231" stop-color="#C5EEFF"/>
<stop offset="0.5" stop-color="#FAF8FF"/>
<stop offset="1" stop-color="#262626"/>
</linearGradient>
<clipPath id="clip0_49_11">
<rect width="150" height="150" fill="white"/>
</clipPath>
</defs>
</svg>
