<svg width="150" height="150" viewBox="0 0 150 150" fill="none" xmlns="http://www.w3.org/2000/svg">
<path d="M33.2812 37.4531C33.2812 25.0547 43.3359 15 55.7344 15H94.2656C106.664 15 116.719 25.0547 116.719 37.4531C116.719 45.3047 112.688 52.2188 106.594 56.2266C112.688 60.2344 116.719 67.1484 116.719 75C116.719 87.3984 106.664 97.4531 94.2656 97.4531H93.7734C87.9609 97.4531 82.6641 95.25 78.6797 91.6172V112.312C78.6797 124.875 68.3672 135 55.8516 135C43.4766 135 33.2812 124.969 33.2812 112.547C33.2812 104.695 37.3125 97.7812 43.4062 93.7734C37.3125 89.7656 33.2812 82.8516 33.2812 75C33.2812 67.1484 37.3125 60.2344 43.4062 56.2266C37.3125 52.2188 33.2812 45.3047 33.2812 37.4531ZM71.3203 59.9062H55.7344C47.3906 59.9062 40.6406 66.6562 40.6406 75C40.6406 83.2969 47.3437 90.0469 55.6406 90.0938H71.3203V59.9062ZM78.6797 75C78.6797 83.3438 85.4297 90.0938 93.7734 90.0938H94.2656C102.609 90.0938 109.359 83.3438 109.359 75C109.359 66.6562 102.609 59.9062 94.2656 59.9062H93.7734C85.4297 59.9062 78.6797 66.6562 78.6797 75ZM55.7344 97.4531H55.6406C47.3437 97.5 40.6406 104.25 40.6406 112.547C40.6406 120.844 47.4844 127.641 55.8516 127.641C64.3594 127.641 71.3203 120.75 71.3203 112.289V97.4297H55.7344V97.4531ZM55.7344 22.3594C47.3906 22.3594 40.6406 29.1094 40.6406 37.4531C40.6406 45.7969 47.3906 52.5469 55.7344 52.5469H71.3203V22.3594H55.7344ZM78.6797 52.5469H94.2656C102.609 52.5469 109.359 45.7969 109.359 37.4531C109.359 29.1094 102.609 22.3594 94.2656 22.3594H78.6797V52.5469Z" fill="url(#paint0_linear_49_59)"/>
<defs>
<linearGradient id="paint0_linear_49_59" x1="45.9831" y1="-31" x2="150.28" y2="-8.43148" gradientUnits="userSpaceOnUse">
<stop stop-color="#00CAFF"/>
<stop offset="0.394231" stop-color="#C5EEFF"/>
<stop offset="0.5" stop-color="#FAF8FF"/>
<stop offset="1" stop-color="#262626"/>
</linearGradient>
</defs>
</svg>
