<svg width="150" height="150" viewBox="0 0 150 150" fill="none" xmlns="http://www.w3.org/2000/svg">
<path d="M65.6953 52.125H47.1094C37.7344 49.6641 16.5234 50.2969 16.5234 69.6563C16.5234 76.7109 20.0391 81.6563 24.7266 83.9531C18.8438 89.3438 16.0547 91.875 16.0547 95.4844C16.0547 98.0625 17.1094 100.43 20.25 101.766C16.8984 104.906 15 107.18 15 111.469C15 118.992 21.5625 123.375 38.8125 123.375C55.4063 123.375 65.0156 117.188 65.0156 106.219C65.0156 92.4609 54.4219 92.9766 29.4844 91.4531L32.625 86.3906C39.0234 88.1719 60.4453 88.7344 60.4453 70.4766C60.4453 66.0938 58.6406 63.0469 56.9297 60.8438L65.6953 60.1875V52.1016V52.125ZM50.8359 108.82C50.8359 116.344 26.25 116.344 26.25 109.383C26.25 107.484 27.4922 105.867 28.7344 104.344C46.9453 105.586 50.8359 105.141 50.8359 108.82ZM38.9297 77.2734C26.5547 77.2734 27.0938 60.5859 39.2109 60.5859C50.8125 60.5859 51.1172 77.2734 38.9297 77.2734ZM70.1719 100.828V93.3047C76.4297 92.4375 76.5469 92.8359 76.5469 90.7266V62.7188C76.5469 60.7266 76.0547 60.9844 70.1719 58.8984L71.2266 51.1875H90.9609V90.7266C90.9609 92.25 91.0547 92.4375 92.4844 92.625L97.3359 93.2812V100.805H70.1719V100.828ZM82.4766 43.5703C77.0391 43.5703 73.8984 40.4297 73.8984 34.9922C73.8984 29.5547 77.0391 26.6016 82.4766 26.6016C88.0078 26.6016 91.1484 29.5547 91.1484 34.9922C91.1484 40.4297 88.0078 43.5703 82.4766 43.5703ZM135 97.1484C130.898 99.1406 124.898 100.969 119.461 100.969C108.117 100.969 103.828 96.3984 103.828 85.6172V60.6562C103.828 59.3906 104.062 59.6953 96.3984 59.6953V51.2109C104.789 50.25 108.117 46.0547 109.172 35.6719H118.219C118.219 51.0938 117.914 50.1562 118.992 50.1562H132.422V59.6719H118.219V82.4297C118.219 84.0469 117.07 94.4766 132.422 88.7109L135 97.1016V97.1484Z" fill="url(#paint0_linear_49_56)"/>
<defs>
<linearGradient id="paint0_linear_49_56" x1="33.2679" y1="-10.4949" x2="169.938" y2="42.2465" gradientUnits="userSpaceOnUse">
<stop stop-color="#00CAFF"/>
<stop offset="0.394231" stop-color="#C5EEFF"/>
<stop offset="0.5" stop-color="#FAF8FF"/>
<stop offset="1" stop-color="#262626"/>
</linearGradient>
</defs>
</svg>
