<svg width="32" height="32" viewBox="0 0 32 32" fill="none" xmlns="http://www.w3.org/2000/svg">
<path d="M11.895 23.07C11.895 23.17 11.78 23.25 11.635 23.25C11.47 23.265 11.355 23.185 11.355 23.07C11.355 22.97 11.47 22.89 11.615 22.89C11.765 22.875 11.895 22.955 11.895 23.07ZM10.34 22.845C10.305 22.945 10.405 23.06 10.555 23.09C10.685 23.14 10.835 23.09 10.865 22.99C10.895 22.89 10.8 22.775 10.65 22.73C10.52 22.695 10.375 22.745 10.34 22.845ZM12.55 22.76C12.405 22.795 12.305 22.89 12.32 23.005C12.335 23.105 12.465 23.17 12.615 23.135C12.76 23.1 12.86 23.005 12.845 22.905C12.83 22.81 12.695 22.745 12.55 22.76ZM15.84 3.59998C8.905 3.59998 3.6 8.86498 3.6 15.8C3.6 21.345 7.09 26.09 12.075 27.76C12.715 27.875 12.94 27.48 12.94 27.155C12.94 26.845 12.925 25.135 12.925 24.085C12.925 24.085 9.425 24.835 8.69 22.595C8.69 22.595 8.12 21.14 7.3 20.765C7.3 20.765 6.155 19.98 7.38 19.995C7.38 19.995 8.625 20.095 9.31 21.285C10.405 23.215 12.24 22.66 12.955 22.33C13.07 21.53 13.395 20.975 13.755 20.645C10.96 20.335 8.14 19.93 8.14 15.12C8.14 13.745 8.52 13.055 9.32 12.175C9.19 11.85 8.765 10.51 9.45 8.77998C10.495 8.45498 12.9 10.13 12.9 10.13C13.9 9.84998 14.975 9.70498 16.04 9.70498C17.105 9.70498 18.18 9.84998 19.18 10.13C19.18 10.13 21.585 8.44998 22.63 8.77998C23.315 10.515 22.89 11.85 22.76 12.175C23.56 13.06 24.05 13.75 24.05 15.12C24.05 19.945 21.105 20.33 18.31 20.645C18.77 21.04 19.16 21.79 19.16 22.965C19.16 24.65 19.145 26.735 19.145 27.145C19.145 27.47 19.375 27.865 20.01 27.75C25.01 26.09 28.4 21.345 28.4 15.8C28.4 8.86498 22.775 3.59998 15.84 3.59998ZM8.46 20.845C8.395 20.895 8.41 21.01 8.495 21.105C8.575 21.185 8.69 21.22 8.755 21.155C8.82 21.105 8.805 20.99 8.72 20.895C8.64 20.815 8.525 20.78 8.46 20.845ZM7.92 20.44C7.885 20.505 7.935 20.585 8.035 20.635C8.115 20.685 8.215 20.67 8.25 20.6C8.285 20.535 8.235 20.455 8.135 20.405C8.035 20.375 7.955 20.39 7.92 20.44ZM9.54 22.22C9.46 22.285 9.49 22.435 9.605 22.53C9.72 22.645 9.865 22.66 9.93 22.58C9.995 22.515 9.965 22.365 9.865 22.27C9.755 22.155 9.605 22.14 9.54 22.22ZM8.97 21.485C8.89 21.535 8.89 21.665 8.97 21.78C9.05 21.895 9.185 21.945 9.25 21.895C9.33 21.83 9.33 21.7 9.25 21.585C9.18 21.47 9.05 21.42 8.97 21.485Z" fill="url(#paint0_linear_8_231)"/>
<defs>
<linearGradient id="paint0_linear_8_231" x1="7.37536" y1="-5.66916" x2="36.8265" y2="3.73114" gradientUnits="userSpaceOnUse">
<stop stop-color="#00CAFF"/>
<stop offset="0.394231" stop-color="#C5EEFF"/>
<stop offset="0.5" stop-color="#FAF8FF"/>
<stop offset="1" stop-color="#262626"/>
</linearGradient>
</defs>
</svg>
