<svg width="32" height="32" viewBox="0 0 32 32" fill="none" xmlns="http://www.w3.org/2000/svg">
<path d="M11.8951 23.07C11.8951 23.17 11.7801 23.25 11.6351 23.25C11.4701 23.265 11.3551 23.185 11.3551 23.07C11.3551 22.97 11.4701 22.89 11.6151 22.89C11.7651 22.875 11.8951 22.955 11.8951 23.07ZM10.3401 22.845C10.3051 22.945 10.4051 23.06 10.5551 23.09C10.6851 23.14 10.8351 23.09 10.8651 22.99C10.8951 22.89 10.8001 22.775 10.6501 22.73C10.5201 22.695 10.3751 22.745 10.3401 22.845ZM12.5501 22.76C12.4051 22.795 12.3051 22.89 12.3201 23.005C12.3351 23.105 12.4651 23.17 12.6151 23.135C12.7601 23.1 12.8601 23.005 12.8451 22.905C12.8301 22.81 12.6951 22.745 12.5501 22.76ZM15.8401 3.60001C8.9051 3.60001 3.6001 8.86501 3.6001 15.8C3.6001 21.345 7.0901 26.09 12.0751 27.76C12.7151 27.875 12.9401 27.48 12.9401 27.155C12.9401 26.845 12.9251 25.135 12.9251 24.085C12.9251 24.085 9.4251 24.835 8.6901 22.595C8.6901 22.595 8.1201 21.14 7.3001 20.765C7.3001 20.765 6.1551 19.98 7.3801 19.995C7.3801 19.995 8.6251 20.095 9.3101 21.285C10.4051 23.215 12.2401 22.66 12.9551 22.33C13.0701 21.53 13.3951 20.975 13.7551 20.645C10.9601 20.335 8.1401 19.93 8.1401 15.12C8.1401 13.745 8.5201 13.055 9.3201 12.175C9.1901 11.85 8.7651 10.51 9.4501 8.78001C10.4951 8.45501 12.9001 10.13 12.9001 10.13C13.9001 9.85001 14.9751 9.70501 16.0401 9.70501C17.1051 9.70501 18.1801 9.85001 19.1801 10.13C19.1801 10.13 21.5851 8.45001 22.6301 8.78001C23.3151 10.515 22.8901 11.85 22.7601 12.175C23.5601 13.06 24.0501 13.75 24.0501 15.12C24.0501 19.945 21.1051 20.33 18.3101 20.645C18.7701 21.04 19.1601 21.79 19.1601 22.965C19.1601 24.65 19.1451 26.735 19.1451 27.145C19.1451 27.47 19.3751 27.865 20.0101 27.75C25.0101 26.09 28.4001 21.345 28.4001 15.8C28.4001 8.86501 22.7751 3.60001 15.8401 3.60001ZM8.4601 20.845C8.3951 20.895 8.4101 21.01 8.4951 21.105C8.5751 21.185 8.6901 21.22 8.7551 21.155C8.8201 21.105 8.8051 20.99 8.7201 20.895C8.6401 20.815 8.5251 20.78 8.4601 20.845ZM7.9201 20.44C7.8851 20.505 7.9351 20.585 8.0351 20.635C8.1151 20.685 8.2151 20.67 8.2501 20.6C8.2851 20.535 8.2351 20.455 8.1351 20.405C8.0351 20.375 7.9551 20.39 7.9201 20.44ZM9.5401 22.22C9.4601 22.285 9.4901 22.435 9.6051 22.53C9.7201 22.645 9.8651 22.66 9.9301 22.58C9.9951 22.515 9.9651 22.365 9.8651 22.27C9.7551 22.155 9.6051 22.14 9.5401 22.22ZM8.9701 21.485C8.8901 21.535 8.8901 21.665 8.9701 21.78C9.0501 21.895 9.1851 21.945 9.2501 21.895C9.3301 21.83 9.3301 21.7 9.2501 21.585C9.1801 21.47 9.0501 21.42 8.9701 21.485Z" fill="#00CAFF"/>
</svg>
