<svg width="32" height="32" viewBox="0 0 32 32" fill="none" xmlns="http://www.w3.org/2000/svg">
<path d="M4.80005 7.99999C4.80005 7.11499 5.51505 6.39999 6.40005 6.39999H25.6C26.485 6.39999 27.2 7.11499 27.2 7.99999C27.2 8.88499 26.485 9.59999 25.6 9.59999H6.40005C5.51505 9.59999 4.80005 8.88499 4.80005 7.99999ZM4.80005 16C4.80005 15.115 5.51505 14.4 6.40005 14.4H25.6C26.485 14.4 27.2 15.115 27.2 16C27.2 16.885 26.485 17.6 25.6 17.6H6.40005C5.51505 17.6 4.80005 16.885 4.80005 16ZM27.2 24C27.2 24.885 26.485 25.6 25.6 25.6H6.40005C5.51505 25.6 4.80005 24.885 4.80005 24C4.80005 23.115 5.51505 22.4 6.40005 22.4H25.6C26.485 22.4 27.2 23.115 27.2 24Z" fill="url(#paint0_linear_10_20)"/>
<defs>
<linearGradient id="paint0_linear_10_20" x1="8.21005" y1="-0.960004" x2="34.1072" y2="8.44265" gradientUnits="userSpaceOnUse">
<stop stop-color="#00CAFF"/>
<stop offset="0.394231" stop-color="#C5EEFF"/>
<stop offset="0.5" stop-color="#FAF8FF"/>
<stop offset="1" stop-color="#262626"/>
</linearGradient>
</defs>
</svg>
