<svg width="150" height="150" viewBox="0 0 150 150" fill="none" xmlns="http://www.w3.org/2000/svg">
<path d="M30.5 22.5C26.0817 22.5 22.5 26.0817 22.5 30.5V119.5C22.5 123.918 26.0817 127.5 30.5 127.5H119.5C123.918 127.5 127.5 123.918 127.5 119.5V30.5C127.5 26.0817 123.918 22.5 119.5 22.5H30.5ZM79.6406 104.391C79.6406 114.609 73.6406 119.273 64.8984 119.273C59.0942 119.273 55.0872 117.071 52.4403 113.941C50.8308 112.037 51.7105 109.27 53.8446 107.982C56.188 106.567 58.9232 107.712 61.0954 109.377C61.977 110.053 63.0517 110.461 64.4766 110.461C67.7109 110.461 69.7734 109.195 69.7734 104.25V75.6445C69.7734 72.9198 71.9823 70.7109 74.707 70.7109C77.4318 70.7109 79.6406 72.9198 79.6406 75.6445V104.391ZM102.984 119.273C95.9802 119.273 90.8655 116.727 87.5565 112.973C85.8606 111.049 86.7444 108.193 88.9655 106.911C91.2364 105.6 94.0263 106.483 96.0204 108.186C97.7325 109.648 99.8827 110.555 102.773 110.555C106.852 110.555 109.477 108.516 109.477 105.68C109.477 102.305 106.805 101.109 102.281 99.1172L99.8203 98.0625C92.6953 95.0391 87.9844 91.2188 87.9844 83.1797C87.9844 75.7734 93.6328 70.1484 102.422 70.1484C107.218 70.1484 110.976 71.4194 113.925 74.5667C115.575 76.3274 114.847 79.0652 112.815 80.3662C110.611 81.7774 107.854 80.679 105.543 79.4508C104.633 78.9673 103.607 78.75 102.398 78.75C99.5156 78.75 97.6875 80.5781 97.6875 82.9688C97.6875 85.9219 99.5156 87.1172 103.758 88.9688L106.219 90.0234C114.609 93.6094 119.32 97.2891 119.32 105.539C119.32 114.398 112.336 119.273 102.984 119.273Z" fill="url(#paint0_linear_8_372)"/>
<defs>
<linearGradient id="paint0_linear_8_372" x1="38.4844" y1="-17.75" x2="163.748" y2="21.2331" gradientUnits="userSpaceOnUse">
<stop stop-color="#00CAFF"/>
<stop offset="0.394231" stop-color="#C5EEFF"/>
<stop offset="0.5" stop-color="#FAF8FF"/>
<stop offset="1" stop-color="#262626"/>
</linearGradient>
</defs>
</svg>
