<svg width="150" height="150" viewBox="0 0 150 150" fill="none" xmlns="http://www.w3.org/2000/svg">
<path d="M133.266 42.1406C133.242 42.0938 133.219 42.0234 133.195 41.9766C133.172 41.8828 133.125 41.7891 133.078 41.6953C133.031 41.6484 133.008 41.5781 132.961 41.5312C132.914 41.4609 132.844 41.3906 132.797 41.3203C132.75 41.2734 132.68 41.2266 132.609 41.1797C132.539 41.1328 132.469 41.0625 132.398 41.0156L109.828 28.0078C109.547 27.8438 109.219 27.75 108.891 27.75C108.562 27.75 108.234 27.8438 107.953 28.0078L85.3828 41.0156C85.3125 41.0625 85.2422 41.1094 85.1719 41.1797C85.1016 41.2266 85.0547 41.2734 84.9844 41.3203C84.9141 41.3906 84.8672 41.4609 84.8203 41.5312C84.7734 41.5781 84.7266 41.625 84.7031 41.6953C84.6562 41.7891 84.6094 41.8828 84.5859 41.9766C84.5625 42.0234 84.5391 42.0703 84.5156 42.1406C84.4688 42.3047 84.4453 42.4687 84.4453 42.6328V67.2891L65.6484 78.1172V29.8594C65.6484 29.6953 65.625 29.5313 65.5781 29.3672C65.5547 29.3203 65.5312 29.2734 65.5078 29.2031C65.4844 29.1094 65.4375 29.0156 65.3906 28.9219C65.3672 28.8516 65.2969 28.8047 65.2734 28.7578C65.2266 28.6875 65.1562 28.6172 65.1094 28.5469C65.0625 28.5 64.9922 28.4531 64.9219 28.4062C64.8516 28.3594 64.7813 28.2891 64.7109 28.2422L42.1406 15.2578C41.8594 15.0937 41.5312 15 41.2031 15C40.875 15 40.5469 15.0937 40.2656 15.2578L17.6953 28.2422C17.625 28.2891 17.5547 28.3359 17.4844 28.4062C17.4141 28.4531 17.3672 28.5 17.2969 28.5469C17.2266 28.6172 17.1797 28.6875 17.1328 28.7578C17.0859 28.8281 17.0391 28.875 16.9922 28.9219C16.9453 29.0156 16.8984 29.1094 16.875 29.2031C16.8516 29.25 16.8281 29.2969 16.8047 29.3672C16.7578 29.5313 16.7344 29.6953 16.7344 29.8594V107.133C16.7344 107.461 16.8281 107.789 16.9922 108.07C17.1562 108.352 17.3906 108.586 17.6719 108.75L62.8125 134.742C62.9062 134.789 63.0234 134.836 63.1172 134.859C63.1641 134.883 63.2109 134.906 63.2578 134.93C63.5625 135.023 63.9141 135.023 64.2188 134.93C64.2656 134.906 64.3125 134.883 64.3594 134.883C64.4766 134.836 64.5938 134.813 64.6875 134.742L109.828 108.773C110.109 108.609 110.344 108.375 110.508 108.094C110.672 107.812 110.766 107.484 110.766 107.156V82.4766L132.375 70.0312C132.656 69.8672 132.891 69.6328 133.055 69.3281C133.219 69.0234 133.312 68.7187 133.312 68.3906V42.6562C133.312 42.4922 133.289 42.3281 133.266 42.1641V42.1406ZM41.2031 19.0547L60 29.8594L41.2031 40.6875L22.4062 29.8594L41.2031 19.0312V19.0547ZM61.875 33.1172V80.2969C54.0938 84.7734 47.8359 88.3828 43.0781 91.125V43.9453C50.8594 39.4688 57.1172 35.8594 61.875 33.1172ZM61.875 129.867L20.5078 106.055V33.1172C25.2656 35.8594 31.5469 39.4688 39.3047 43.9453V94.3828C39.3047 94.4531 39.3281 94.5234 39.3281 94.5938C39.3281 94.6875 39.3516 94.7812 39.375 94.875C39.3984 94.9453 39.4219 95.0156 39.4687 95.0859C39.4922 95.1562 39.5391 95.25 39.5625 95.3203C39.6094 95.3906 39.6562 95.4375 39.7031 95.5078C39.75 95.5781 39.7969 95.6484 39.8672 95.6953C39.9141 95.7422 39.9844 95.7891 40.0547 95.8359C40.125 95.8828 40.1953 95.9531 40.2656 96L61.875 108.234L61.8984 129.891L61.875 129.867ZM63.75 104.977L45 94.3594C57.8203 86.9766 71.6016 79.0547 86.3203 70.5703L105.094 81.375C98.2031 85.3125 84.4219 93.1641 63.75 104.977ZM106.992 106.055L65.625 129.867V108.234C89.3906 94.6875 103.172 86.8125 106.992 84.6094V106.031V106.055ZM106.992 78.1406C102.234 75.4219 95.9531 71.8125 88.1953 67.3359V45.9141C92.9531 48.6562 99.2344 52.2656 106.992 56.7422V78.1406ZM108.867 53.4609L90.0703 42.6328L108.867 31.8047L127.664 42.6094L108.867 53.4375V53.4609ZM110.742 78.1406V56.7422C118.523 52.2656 124.805 48.6562 129.562 45.9141V67.3359L110.742 78.1641V78.1406Z" fill="url(#paint0_linear_8_379)"/>
<defs>
<linearGradient id="paint0_linear_8_379" x1="34.4813" y1="-31" x2="174.251" y2="11.2573" gradientUnits="userSpaceOnUse">
<stop stop-color="#00CAFF"/>
<stop offset="0.394231" stop-color="#C5EEFF"/>
<stop offset="0.5" stop-color="#FAF8FF"/>
<stop offset="1" stop-color="#262626"/>
</linearGradient>
</defs>
</svg>
