<svg width="32" height="32" viewBox="0 0 32 32" fill="none" xmlns="http://www.w3.org/2000/svg">
<path d="M25.6 4.79999H6.39505C5.51505 4.79999 4.80005 5.52499 4.80005 6.41499V25.585C4.80005 26.475 5.51505 27.2 6.39505 27.2H25.6C26.48 27.2 27.2 26.475 27.2 25.585V6.41499C27.2 5.52499 26.48 4.79999 25.6 4.79999ZM11.57 24H8.25005V13.31H11.575V24H11.57ZM9.91005 7.99999C10.975 7.99999 11.835 8.85999 11.835 9.92499C11.835 10.99 10.975 11.85 9.91005 11.85C8.84505 11.85 7.98505 10.99 7.98505 9.92499C7.98505 8.85999 8.84505 7.99999 9.91005 7.99999ZM24.015 24H20.695V18.8C20.695 17.56 20.67 15.965 18.97 15.965C17.24 15.965 16.975 17.315 16.975 18.71V24H13.655V13.31H16.84V14.77H16.885C17.33 13.93 18.415 13.045 20.03 13.045C23.39 13.045 24.015 15.26 24.015 18.14V24Z" fill="#00CAFF"/>
</svg>
