<svg width="150" height="150" viewBox="0 0 150 150" fill="none" xmlns="http://www.w3.org/2000/svg">
<path d="M74.2734 43.8984C74.5078 44.0156 74.6953 44.2968 74.9766 44.2968C75.2344 44.2968 75.6328 44.2031 75.6562 43.9453C75.7031 43.6171 75.2109 43.4062 74.9062 43.2656C74.5078 43.1015 73.9922 43.0312 73.6172 43.2421C73.5234 43.289 73.4297 43.4062 73.4766 43.4999C73.5469 43.8046 74.0156 43.7578 74.2734 43.8984ZM69.1406 44.2968C69.4219 44.2968 69.6094 44.0156 69.8437 43.8984C70.1016 43.7578 70.5703 43.8046 70.6641 43.5234C70.7109 43.4296 70.6172 43.3124 70.5234 43.2656C70.1484 43.0546 69.6328 43.1249 69.2344 43.289C68.9297 43.4296 68.4375 43.6406 68.4844 43.9687C68.5078 44.2031 68.9062 44.3203 69.1406 44.2968ZM120.937 109.641C120.094 108.703 119.695 106.922 119.25 105.023C118.828 103.125 118.336 101.086 116.789 99.7734C116.484 99.5156 116.18 99.2812 115.852 99.0937C115.547 98.9062 115.219 98.7421 114.891 98.6249C117.047 92.2265 116.203 85.8515 114.023 80.0859C111.352 73.0312 106.687 66.8671 103.125 62.6484C99.1172 57.6093 95.2266 52.8281 95.2969 45.7734C95.4141 35.0156 96.4922 15.0234 77.5312 14.9999C53.5312 14.9531 59.5312 39.2343 59.2734 46.6874C58.875 52.1718 57.7734 56.4843 54 61.8515C49.5703 67.1249 43.3359 75.6328 40.3828 84.5156C38.9766 88.7109 38.3203 92.9765 38.9297 97.0078C37.4062 98.3671 36.2578 100.453 35.0391 101.742C34.0547 102.75 32.625 103.125 31.0547 103.687C29.4844 104.25 27.7734 105.094 26.7187 107.086C26.2266 108 26.0625 108.984 26.0625 109.992C26.0625 110.906 26.2031 111.844 26.3437 112.758C26.625 114.656 26.9297 116.437 26.5312 117.633C25.3125 121.008 25.1484 123.352 26.0156 125.062C26.9062 126.773 28.6875 127.523 30.7266 127.945C34.7812 128.789 40.2891 128.578 44.625 130.875C49.2656 133.312 53.9766 134.18 57.7266 133.312C60.4453 132.703 62.6719 131.062 63.7969 128.578C66.7266 128.555 69.9609 127.312 75.1172 127.031C78.6094 126.75 82.9922 128.273 88.0312 127.992C88.1719 128.531 88.3594 129.07 88.6172 129.562V129.586C90.5625 133.5 94.1953 135.281 98.0625 134.977C101.953 134.672 106.055 132.398 109.383 128.437C112.57 124.594 117.82 123 121.312 120.891C123.047 119.836 124.453 118.523 124.57 116.602C124.664 114.68 123.539 112.547 120.937 109.641ZM74.9531 35.4609C77.25 30.2578 82.9687 30.3515 85.2656 35.3671C86.7891 38.6953 86.1094 42.6093 84.2578 44.8359C83.8828 44.6484 82.875 44.2265 81.3047 43.6874C81.5625 43.4062 82.0312 43.0546 82.2187 42.6093C83.3437 39.8437 82.1719 36.2812 80.0859 36.2109C78.375 36.0937 76.8281 38.7421 77.3203 41.6015C76.3594 41.1328 75.1172 40.7812 74.2734 40.5703C74.0391 38.9531 74.2031 37.1484 74.9531 35.4609ZM65.4141 32.7656C67.7812 32.7656 70.2891 36.0937 69.8906 40.6171C69.0703 40.8515 68.2266 41.2031 67.5 41.6953C67.7812 39.6093 66.7266 36.9843 65.25 37.1015C63.2812 37.2656 62.9531 42.0703 64.8281 43.6874C65.0625 43.8749 65.2734 43.6406 63.4453 44.9765C59.7891 41.5546 60.9844 32.7656 65.4141 32.7656ZM62.2266 46.9921C63.6797 45.914 65.4141 44.6484 65.5312 44.5312C66.6328 43.4999 68.6953 41.2031 72.0703 41.2031C73.7344 41.2031 75.7266 41.7421 78.1406 43.289C79.6172 44.2499 80.7891 44.3203 83.4375 45.4687C85.4062 46.289 86.6484 47.7421 85.8984 49.7343C85.2891 51.3984 83.3203 53.1093 80.5781 53.9765C77.9766 54.8203 75.9375 57.7265 71.625 57.4687C70.7109 57.4218 69.9844 57.2343 69.375 56.9765C67.5 56.1562 66.5156 54.539 64.6875 53.4609C62.6719 52.3359 61.5937 51.0234 61.2422 49.8749C60.9141 48.7265 61.2422 47.7656 62.2266 46.9921ZM63 125.273C62.3672 133.5 52.7109 133.336 45.3516 129.492C38.3437 125.789 29.2734 127.969 27.4219 124.359C26.8594 123.258 26.8594 121.383 28.0312 118.172V118.125C28.5937 116.344 28.1719 114.375 27.8906 112.523C27.6094 110.695 27.4687 109.008 28.1016 107.836C28.9219 106.266 30.0937 105.703 31.5703 105.187C33.9844 104.32 34.3359 104.391 36.1641 102.867C37.4531 101.531 38.3906 99.8437 39.5156 98.6484C40.7109 97.3593 41.8594 96.7499 43.6641 97.0312C45.5625 97.3124 47.2031 98.6249 48.7969 100.781L53.3906 109.125C55.6172 113.789 63.4922 120.469 63 125.273ZM62.6719 119.203C61.7109 117.656 60.4219 116.016 59.2969 114.609C60.9609 114.609 62.625 114.094 63.2109 112.523C63.75 111.07 63.2109 109.031 61.4766 106.687C58.3125 102.422 52.5 99.0703 52.5 99.0703C49.3359 97.1015 47.5547 94.6874 46.7344 92.0624C45.9141 89.4374 46.0312 86.6015 46.6641 83.8124C47.8828 78.4453 51.0234 73.2187 53.0391 69.9374C53.5781 69.539 53.2266 70.6875 51 74.8125C49.0078 78.5859 45.2812 87.3046 50.3906 94.1249C50.5312 89.2734 51.6797 84.3281 53.625 79.7109C56.4375 73.289 62.3672 62.1562 62.8359 53.2968C63.0937 53.4843 63.9141 54.0468 64.2891 54.2578C65.3672 54.8906 66.1875 55.8281 67.2422 56.6718C70.1484 59.0156 73.9219 58.8281 77.1797 56.9531C78.6328 56.1328 79.8047 55.1953 80.9062 54.8437C83.2266 54.1171 85.0781 52.8281 86.1328 51.3281C87.9375 58.4531 92.1562 68.7421 94.8516 73.7578C96.2812 76.4296 99.1406 82.0781 100.383 88.8984C101.156 88.8749 102.023 88.9921 102.937 89.2265C106.172 80.8593 100.195 71.8359 97.4766 69.3281C96.375 68.2499 96.3281 67.7812 96.8672 67.8046C99.8203 70.4296 103.711 75.7031 105.117 81.6328C105.773 84.3515 105.891 87.1874 105.211 89.9999C109.055 91.5937 113.625 94.1953 112.406 98.1562C111.891 98.1328 111.656 98.1562 111.422 98.1562C112.172 95.789 110.508 94.0312 106.078 92.039C101.484 90.0234 97.6406 90.0234 97.1016 94.9687C94.2656 95.9531 92.8125 98.414 92.0859 101.367C91.4297 103.992 91.2422 107.156 91.0547 110.719C90.9375 112.523 90.2109 114.937 89.4609 117.516C81.9375 122.883 71.4844 125.227 62.6719 119.203ZM123 116.508C122.789 120.445 113.344 121.172 108.187 127.406C105.094 131.086 101.297 133.125 97.9687 133.383C94.6406 133.641 91.7578 132.258 90.0703 128.859C88.9687 126.258 89.5078 123.445 90.3281 120.352C91.1953 117.023 92.4844 113.602 92.6484 110.836C92.8359 107.273 93.0469 104.156 93.6328 101.766C94.2422 99.3515 95.1797 97.7343 96.8437 96.8203C96.9141 96.7734 97.0078 96.7499 97.0781 96.7031C97.2656 99.7968 98.7891 102.937 101.484 103.617C104.437 104.391 108.68 101.859 110.484 99.7968C112.594 99.7265 114.164 99.5859 115.781 100.992C118.102 102.984 117.445 108.094 119.789 110.742C122.273 113.461 123.07 115.312 123 116.508ZM63.1406 49.8515C63.6094 50.2968 64.2422 50.9062 65.0156 51.5156C66.5625 52.7343 68.7187 53.9999 71.4141 53.9999C74.1328 53.9999 76.6875 52.6171 78.8672 51.4687C80.0156 50.8593 81.4219 49.8281 82.3359 49.0312C83.25 48.2343 83.7187 47.5546 83.0625 47.4843C82.4062 47.414 82.4531 48.0937 81.6562 48.6796C80.625 49.4296 79.3828 50.414 78.3984 50.9765C76.6641 51.9609 73.8281 53.3671 71.3906 53.3671C68.9531 53.3671 67.0078 52.2421 65.5547 51.0937C64.8281 50.5078 64.2187 49.9218 63.75 49.4765C63.3984 49.1484 63.3047 48.3984 62.7422 48.3281C62.4141 48.3046 62.3203 49.1953 63.1406 49.8515Z" fill="url(#paint0_linear_49_47)"/>
<defs>
<linearGradient id="paint0_linear_49_47" x1="40.5574" y1="-31.0039" x2="162.205" y2="0.259308" gradientUnits="userSpaceOnUse">
<stop stop-color="#00CAFF"/>
<stop offset="0.394231" stop-color="#C5EEFF"/>
<stop offset="0.5" stop-color="#FAF8FF"/>
<stop offset="1" stop-color="#262626"/>
</linearGradient>
</defs>
</svg>
