<svg width="150" height="150" viewBox="0 0 150 150" fill="none" xmlns="http://www.w3.org/2000/svg">
<path d="M75.1172 134.062C73.5469 134.062 71.9531 133.641 70.5703 132.844L56.1094 124.289C53.9531 123.07 55.0078 122.648 55.7109 122.414C58.5938 121.406 59.1797 121.195 62.25 119.438C62.5781 119.25 63 119.32 63.3281 119.531L74.4375 126.117C74.8359 126.352 75.3984 126.352 75.7734 126.117L119.062 101.133C119.461 100.898 119.719 100.43 119.719 99.9609V49.9922C119.719 49.5 119.461 49.0547 119.039 48.7969L75.7734 23.8359C75.375 23.6016 74.8359 23.6016 74.4375 23.8359L31.1953 48.8203C30.7734 49.0547 30.5156 49.5234 30.5156 50.0156V99.9609C30.5156 100.43 30.7734 100.898 31.1953 101.109L43.0547 107.953C49.5 111.164 53.4375 107.391 53.4375 103.57V54.2578C53.4375 53.5547 54 53.0156 54.7031 53.0156H60.1875C60.8672 53.0156 61.4531 53.5547 61.4531 54.2578V103.594C61.4531 112.172 56.7656 117.094 48.6328 117.094C46.125 117.094 44.1562 117.094 38.6719 114.375L27.3281 107.836C24.5156 106.219 22.7812 103.195 22.7812 99.9375V49.9922C22.7812 46.7578 24.5156 43.7109 27.3281 42.0938L70.5703 17.1094C73.3125 15.5625 76.9453 15.5625 79.6641 17.1094L122.953 42.1172C125.766 43.7344 127.5 46.7578 127.5 50.0156V99.9609C127.5 103.195 125.766 106.219 122.953 107.859L79.6641 132.844C78.2812 133.641 76.7109 134.062 75.1172 134.062ZM110.063 84.8203C110.063 75.4688 103.734 72.9844 90.4453 71.2266C76.9922 69.4453 75.6328 68.5312 75.6328 65.3906C75.6328 62.7891 76.7813 59.3203 86.7422 59.3203C95.625 59.3203 98.9062 61.2422 100.266 67.2422C100.383 67.8047 100.898 68.2266 101.484 68.2266H107.109C107.461 68.2266 107.789 68.0859 108.023 67.8281C108.258 67.5703 108.375 67.2187 108.352 66.8672C107.484 56.5312 100.617 51.7266 86.7422 51.7266C74.3906 51.7266 67.0312 56.9297 67.0312 65.6719C67.0312 75.1406 74.3672 77.7656 86.2031 78.9375C100.383 80.3203 101.484 82.4062 101.484 85.1953C101.484 90.0234 97.5938 92.0859 88.4766 92.0859C77.0156 92.0859 74.5078 89.2031 73.6641 83.5078C73.5703 82.8984 73.0547 82.4531 72.4219 82.4531H66.8203C66.1172 82.4531 65.5781 83.0156 65.5781 83.6953C65.5781 90.9844 69.5391 99.6797 88.5 99.6797C102.188 99.6562 110.063 94.2422 110.063 84.8203Z" fill="url(#paint0_linear_49_50)"/>
<defs>
<linearGradient id="paint0_linear_49_50" x1="38.7228" y1="-29.3275" x2="166.056" y2="5.8059" gradientUnits="userSpaceOnUse">
<stop stop-color="#00CAFF"/>
<stop offset="0.394231" stop-color="#C5EEFF"/>
<stop offset="0.5" stop-color="#FAF8FF"/>
<stop offset="1" stop-color="#262626"/>
</linearGradient>
</defs>
</svg>
