<svg width="24" height="24" viewBox="0 0 24 24" fill="none" xmlns="http://www.w3.org/2000/svg">
<path d="M8.4075 3.33761C8.11125 2.62886 7.33875 2.25386 6.60375 2.45261L6.3975 2.50886C3.975 3.16886 1.905 5.51636 2.50875 8.37386C3.9 14.9364 9.06375 20.1001 15.6263 21.4914C18.4875 22.0989 20.8313 20.0251 21.4913 17.6026L21.5475 17.3964C21.75 16.6576 21.3712 15.8851 20.6662 15.5926L17.0175 14.0739C16.3988 13.8151 15.6825 13.9951 15.255 14.5164L13.8075 16.2864C11.1713 14.9776 9.04875 12.7876 7.83 10.0989L9.4875 8.74886C10.0087 8.32511 10.185 7.60886 9.93 6.98636L8.4075 3.33761Z" fill="#00CAFF"/>
</svg>
