<svg width="150" height="150" viewBox="0 0 150 150" fill="none" xmlns="http://www.w3.org/2000/svg">
<path d="M75 39.4922C115.172 39.4922 146.062 56.4141 146.062 75C146.062 93.5859 115.148 110.508 75 110.508C34.8281 110.508 3.9375 93.5859 3.9375 75C3.9375 56.4141 34.8516 39.4922 75 39.4922ZM75 35.5547C33.5859 35.5547 0 53.2031 0 75C0 96.7969 33.5859 114.445 75 114.445C116.414 114.445 150 96.7969 150 75C150 53.2031 116.414 35.5547 75 35.5547ZM51.1406 71.8359C49.2891 81.3281 42.75 80.3437 34.7109 80.3437L37.9219 63.7969C46.8281 63.7969 52.875 62.8359 51.1406 71.8359ZM22.8281 97.1016H31.4297L33.4688 86.6016C43.1016 86.6016 49.0781 87.3047 54.6094 82.125C60.7266 76.5 62.3203 66.4922 57.9609 61.4766C55.6875 58.8516 52.0312 57.5625 47.0625 57.5625H30.4922L22.8281 97.1016ZM66.3516 47.0391H74.9062L72.8672 57.5391C80.25 57.5391 87.0938 57 90.3984 60.0469C93.8672 63.2344 92.2031 67.3125 88.4531 86.5547H79.7812C83.3906 67.9453 84.0703 66.3984 82.7578 64.9922C81.4922 63.6328 78.6094 63.9141 71.6484 63.9141L67.2422 86.5547H58.6875L66.3516 47.0391ZM118.359 71.8359C116.484 81.4688 109.758 80.3437 101.93 80.3437L105.141 63.7969C114.094 63.7969 120.094 62.8359 118.359 71.8359ZM90.0469 97.1016H98.6719L100.711 86.6016C110.836 86.6016 116.438 87.1875 121.852 82.125C127.969 76.5 129.562 66.4922 125.203 61.4766C122.93 58.8516 119.273 57.5625 114.305 57.5625H97.7344L90.0469 97.1016Z" fill="url(#paint0_linear_8_385)"/>
<defs>
<linearGradient id="paint0_linear_8_385" x1="22.8348" y1="5.3133" x2="168.212" y2="91.3364" gradientUnits="userSpaceOnUse">
<stop stop-color="#00CAFF"/>
<stop offset="0.394231" stop-color="#C5EEFF"/>
<stop offset="0.5" stop-color="#FAF8FF"/>
<stop offset="1" stop-color="#262626"/>
</linearGradient>
</defs>
</svg>
