<svg width="150" height="150" viewBox="0 0 150 150" fill="none" xmlns="http://www.w3.org/2000/svg">
<path d="M66.5156 55.1484C67.4297 55.2656 69.5859 55.7812 69.3984 57.1406C69.2109 58.5234 67.2422 59.2734 66.0703 59.1094C64.9687 58.9453 62.9765 57.6797 63.1875 56.2734L63.2578 55.7812C64.2422 55.7812 65.2031 54.9609 66.5156 55.1484ZM105.914 54.3516C108.445 54.9609 105.656 57.5156 104.32 57.7031C103.312 57.8438 101.484 57.1875 101.32 55.9688C101.086 54.2344 105 54.1172 105.937 54.3516H105.914ZM100.758 21.3516C109.125 21.2812 119.812 23.5547 127.547 33.4688C129.234 35.625 129.891 39.0938 129.82 43.0547C129.633 54.6797 123.727 73.3828 113.25 89.3203C114.305 90 117.375 91.0547 125.227 89.4375C126.539 89.1562 128.203 88.9219 129.352 89.8125C133.617 93.0703 124.758 98.0391 122.695 99C119.602 100.453 114.539 101.227 110.695 101.039C110.203 100.992 109.687 100.992 109.219 100.898C108.023 100.641 107.484 100.664 107.273 100.734C107.016 100.805 106.945 101.414 106.898 101.625C106.242 107.461 105.094 116.789 104.391 120.844C103.734 124.664 102.586 127.711 100.359 130.031C98.1328 132.352 95.0156 133.711 90.8437 134.602C85.6172 135.727 81.9609 134.578 79.4297 132.469C77.0156 130.43 75.8672 127.688 75.2109 126.047C74.789 124.992 74.5078 123.352 74.2734 121.406C73.7344 116.766 73.5 109.594 73.5703 101.883C67.8047 107.062 60.6797 105.914 57.5859 105.141C55.125 104.531 49.8515 101.367 53.4844 98.4141C56.2734 96.1406 60.5859 97.125 63.375 94.8984C63.9375 94.4531 66.0469 92.4141 66.0469 91.7344C63.7031 91.6641 61.4531 91.0547 59.4609 89.9766C56.2969 93.375 53.2734 96.8906 50.25 100.43C48.3047 102.75 46.1719 104.133 43.8281 104.227C41.5078 104.32 39.4453 103.148 37.7109 101.461C36 99.7969 34.4062 97.4297 32.9297 94.6641C28.4765 86.3438 25.1484 74.4844 23.0156 65.0391C21.6094 58.7812 20.7656 53.5312 20.6484 51.2109C20.1328 40.8281 22.5234 33.8438 26.7422 29.3672C30.9375 24.9141 36.6797 23.2734 42.2344 22.9453C50.5781 22.4766 58.875 24.9375 62.5312 26.1797L63.7031 26.6016C67.4297 24.0703 72.164 22.5234 78.164 22.6172C81.2578 22.6641 84.1406 23.1328 86.7656 23.6016C91.125 21.9375 96.0937 21.375 100.687 21.3281L100.758 21.3516ZM78.2578 26.1562C72.4687 26.0625 68.2031 27.6797 64.9922 30.0937C64.8047 30.2344 64.5703 30.3281 64.3359 30.375C60.9609 33.1406 58.7344 36.9375 57.2344 40.875C55.5469 45.3516 54.8906 49.8984 54.6328 52.9453C56.414 51.9375 58.8281 50.9062 61.3594 50.3203C63.8203 49.7578 66.6094 49.5703 69.0234 50.5078C71.5781 51.4922 73.4766 53.625 74.2266 57.0938C75.9844 65.2266 75.7969 70.7344 74.8594 74.8828C73.7344 79.8047 70.9219 84.1406 69.7265 89.0391C70.5469 88.8281 71.3906 88.8984 72.0234 89.0625L73.7109 89.7422C75.5156 90.7734 76.7109 92.7891 76.9922 94.8281C77.4609 96.2344 77.0156 98.1797 76.9922 99.6562C78.5625 103.477 78.6797 108.117 78.5625 112.148C78.3984 118.008 78.3281 121.57 79.3125 124.266C79.9922 126.117 80.414 128.109 81.75 129.609C82.3594 130.312 83.1797 130.898 84.3047 131.203C88.6406 132.398 94.6172 130.102 97.5703 126.937C99.375 125.016 100.453 122.414 100.711 118.992C100.969 115.805 101.695 112.523 102.187 109.359L102.867 107.297C103.266 103.828 103.664 100.359 104.039 96.8906C103.945 94.7578 104.25 93.1172 104.953 91.8516C105.68 90.5156 106.734 89.7656 107.719 89.3203C108.141 89.1328 108.633 89.0391 109.031 88.8516C108.656 88.2891 108.187 87.7734 107.789 87.2578C105.867 84.8203 104.672 82.0312 103.172 79.3359C101.18 75.7734 97.5937 69.4453 96.1172 63.5156C95.1562 59.6719 94.9687 55.4297 97.5234 52.5C99.8203 49.875 103.828 48.8672 109.687 49.4531C108.891 47.1094 107.016 43.0078 103.875 38.9766C99.6562 33.5859 93.164 28.2187 83.7891 26.5312C82.0781 26.3203 80.2265 26.1797 78.2578 26.1328V26.1562ZM70.7109 92.25C68.8359 92.4141 67.0781 96.5156 65.625 97.6641C64.1719 98.8125 62.2265 99.4453 58.5937 100.172C57.539 100.383 56.789 100.617 56.3203 100.828C61.5469 104.531 69.9844 101.578 73.3359 96.8906C73.7344 96.3281 73.8281 95.4844 73.4531 94.5C73.0547 93.4453 71.9531 92.1328 70.664 92.25H70.7109ZM42.5625 26.5312C37.5 26.8125 32.7187 28.2891 29.3437 31.875C25.9687 35.4375 23.6719 41.3906 24.164 51.2109C24.2578 53.2031 25.0547 58.2422 26.4609 64.4766C28.5469 73.8047 32.0156 85.6406 35.9765 93.1172C37.3828 95.7188 40.0547 100.852 43.664 100.688C44.6953 100.641 46.0312 100.031 47.6484 98.1094C50.6015 94.6406 53.5547 91.1953 56.6719 87.8672C52.4765 84.2578 49.9922 78.4219 50.8594 72.1172C51.6562 66.4219 50.9765 60.8203 51.1406 55.125C51.2344 52.3359 51.6797 46.0547 54.0937 39.7031C55.4765 36.0703 57.4922 32.3672 60.5156 29.3437C56.6719 28.0781 49.4766 26.1797 42.5625 26.5547V26.5312ZM109.945 92.0859C109.055 92.3438 108.375 92.6016 107.906 93.4453C107.602 94.0078 107.32 95.0156 107.391 96.7734C108.516 97.6875 110.695 97.5469 112.031 97.5234C115.289 97.4766 119.039 96.7969 121.242 95.7656C123.094 94.8984 124.687 93.8203 125.695 92.9062C116.742 94.7109 112.711 93.3984 110.883 91.7812C110.578 91.875 110.203 91.9922 109.969 92.0625L109.945 92.0859ZM67.8047 53.6484C64.1953 52.2656 59.5078 54.0703 56.3437 55.8516C55.5 56.3203 54.8203 56.7891 54.4922 57.0703C54.5859 59.1328 55.1484 65.5312 54.164 72.6094C52.9687 81.1875 59.25 88.2188 66.4687 88.2422C67.664 83.3672 70.4531 79.0547 71.5781 74.1562C72.3984 70.5703 72.6328 65.5781 70.9453 57.8203C70.4062 55.3594 69.2109 54.2109 67.8047 53.6719V53.6484ZM101.742 24.8906C98.1797 24.8437 94.9922 25.2891 92.5547 25.7812C98.6484 28.5469 103.242 32.7422 106.523 36.9375C110.602 42.1406 112.687 47.2734 113.32 49.8281C113.484 50.4609 113.625 51.1641 113.437 51.7969C113.578 56.2266 112.5 59.1328 112.359 63.3281C112.266 66.3516 113.039 69.9141 113.227 73.8047C113.414 77.4844 112.992 81.4219 110.602 85.4062C110.789 85.6406 110.977 85.8984 111.164 86.1328C117.445 76.2422 121.945 65.3672 124.359 56.0156C125.648 51 126.328 46.4766 126.398 42.8672C126.445 39.3047 125.93 36.9141 125.039 35.7422C118.406 27.2813 109.383 25.0078 101.766 24.9141L101.742 24.8906ZM110.086 52.8984C104.156 52.1484 101.344 53.25 100.055 54.7031C98.6484 56.2969 98.4609 59.0391 99.375 62.6953C100.711 67.9922 104.086 74.0859 106.102 77.6953C106.945 79.1953 107.602 80.7656 108.445 82.2422C109.734 79.5 109.992 76.7344 109.852 73.9219C109.687 70.4062 108.867 66.8203 108.984 63.1875L109.078 61.4531C109.359 58.1016 110.039 55.6875 110.062 52.8984H110.086Z" fill="url(#paint0_linear_49_20)"/>
<defs>
<linearGradient id="paint0_linear_49_20" x1="37.3123" y1="-22.262" x2="169.209" y2="17.4157" gradientUnits="userSpaceOnUse">
<stop stop-color="#00CAFF"/>
<stop offset="0.394231" stop-color="#C5EEFF"/>
<stop offset="0.5" stop-color="#FAF8FF"/>
<stop offset="1" stop-color="#262626"/>
</linearGradient>
</defs>
</svg>
