<svg width="150" height="150" viewBox="0 0 150 150" fill="none" xmlns="http://www.w3.org/2000/svg">
<path d="M75 30C55.0078 30 42.4922 40.0078 37.5 60C45 49.9922 53.7422 46.2422 63.75 48.75C69.4453 50.1797 73.5234 54.3281 78.0469 58.8984C85.4062 66.3516 93.9141 75 112.5 75C132.492 75 145.008 64.9922 150 45C142.5 55.0078 133.758 58.7578 123.75 56.25C118.055 54.8203 113.977 50.6719 109.453 46.1016C102.094 38.6484 93.5859 30 75 30ZM37.5 75C17.5078 75 4.99219 85.0078 0 105C7.5 94.9922 16.2422 91.2422 26.25 93.75C31.9453 95.1797 36.0234 99.3281 40.5469 103.898C47.9062 111.352 56.4141 120 75 120C94.9922 120 107.508 109.992 112.5 90C105 100.008 96.2578 103.758 86.25 101.25C80.5547 99.8203 76.4766 95.6719 71.9531 91.1016C64.5938 83.6484 56.0859 75 37.5 75Z" fill="url(#paint0_linear_49_14)"/>
<defs>
<linearGradient id="paint0_linear_49_14" x1="22.8348" y1="-4.49999" x2="177.504" y2="75.7238" gradientUnits="userSpaceOnUse">
<stop stop-color="#00CAFF"/>
<stop offset="0.394231" stop-color="#C5EEFF"/>
<stop offset="0.5" stop-color="#FAF8FF"/>
<stop offset="1" stop-color="#262626"/>
</linearGradient>
</defs>
</svg>
