<svg width="32" height="32" viewBox="0 0 32 32" fill="none" xmlns="http://www.w3.org/2000/svg">
<path d="M28.8 16C28.8 8.92995 23.07 3.19995 16 3.19995C8.93 3.19995 3.2 8.92995 3.2 16C3.2 22 7.335 27.04 12.91 28.425V19.91H10.27V16H12.91V14.315C12.91 9.95995 14.88 7.93995 19.16 7.93995C19.97 7.93995 21.37 8.09995 21.945 8.25995V11.8C21.645 11.77 21.12 11.75 20.465 11.75C18.365 11.75 17.555 12.545 17.555 14.61V16H21.735L21.015 19.91H17.55V28.705C23.89 27.94 28.8 22.545 28.8 16Z" fill="#00CAFF"/>
</svg>
