<svg width="32" height="32" viewBox="0 0 32 32" fill="none" xmlns="http://www.w3.org/2000/svg">
<path d="M11.895 23.0701C11.895 23.1701 11.78 23.2501 11.635 23.2501C11.47 23.2651 11.355 23.1851 11.355 23.0701C11.355 22.9701 11.47 22.8901 11.615 22.8901C11.765 22.8751 11.895 22.9551 11.895 23.0701ZM10.34 22.8451C10.305 22.9451 10.405 23.0601 10.555 23.0901C10.685 23.1401 10.835 23.0901 10.865 22.9901C10.895 22.8901 10.8 22.7751 10.65 22.7301C10.52 22.6951 10.375 22.7451 10.34 22.8451ZM12.55 22.7601C12.405 22.7951 12.305 22.8901 12.32 23.0051C12.335 23.1051 12.465 23.1701 12.615 23.1351C12.76 23.1001 12.86 23.0051 12.845 22.9051C12.83 22.8101 12.695 22.7451 12.55 22.7601ZM15.84 3.6001C8.905 3.6001 3.6 8.8651 3.6 15.8001C3.6 21.3451 7.09 26.0901 12.075 27.7601C12.715 27.8751 12.94 27.4801 12.94 27.1551C12.94 26.8451 12.925 25.1351 12.925 24.0851C12.925 24.0851 9.425 24.8351 8.69 22.5951C8.69 22.5951 8.12 21.1401 7.3 20.7651C7.3 20.7651 6.155 19.9801 7.38 19.9951C7.38 19.9951 8.625 20.0951 9.31 21.2851C10.405 23.2151 12.24 22.6601 12.955 22.3301C13.07 21.5301 13.395 20.9751 13.755 20.6451C10.96 20.3351 8.14 19.9301 8.14 15.1201C8.14 13.7451 8.52 13.0551 9.32 12.1751C9.19 11.8501 8.765 10.5101 9.45 8.7801C10.495 8.4551 12.9 10.1301 12.9 10.1301C13.9 9.8501 14.975 9.7051 16.04 9.7051C17.105 9.7051 18.18 9.8501 19.18 10.1301C19.18 10.1301 21.585 8.4501 22.63 8.7801C23.315 10.5151 22.89 11.8501 22.76 12.1751C23.56 13.0601 24.05 13.7501 24.05 15.1201C24.05 19.9451 21.105 20.3301 18.31 20.6451C18.77 21.0401 19.16 21.7901 19.16 22.9651C19.16 24.6501 19.145 26.7351 19.145 27.1451C19.145 27.4701 19.375 27.8651 20.01 27.7501C25.01 26.0901 28.4 21.3451 28.4 15.8001C28.4 8.8651 22.775 3.6001 15.84 3.6001ZM8.46 20.8451C8.395 20.8951 8.41 21.0101 8.495 21.1051C8.575 21.1851 8.69 21.2201 8.755 21.1551C8.82 21.1051 8.805 20.9901 8.72 20.8951C8.64 20.8151 8.525 20.7801 8.46 20.8451ZM7.92 20.4401C7.885 20.5051 7.935 20.5851 8.035 20.6351C8.115 20.6851 8.215 20.6701 8.25 20.6001C8.285 20.5351 8.235 20.4551 8.135 20.4051C8.035 20.3751 7.955 20.3901 7.92 20.4401ZM9.54 22.2201C9.46 22.2851 9.49 22.4351 9.605 22.5301C9.72 22.6451 9.865 22.6601 9.93 22.5801C9.995 22.5151 9.965 22.3651 9.865 22.2701C9.755 22.1551 9.605 22.1401 9.54 22.2201ZM8.97 21.4851C8.89 21.5351 8.89 21.6651 8.97 21.7801C9.05 21.8951 9.185 21.9451 9.25 21.8951C9.33 21.8301 9.33 21.7001 9.25 21.5851C9.18 21.4701 9.05 21.4201 8.97 21.4851Z" fill="#00CAFF"/>
</svg>
