<svg width="32" height="32" viewBox="0 0 32 32" fill="none" xmlns="http://www.w3.org/2000/svg">
<path d="M25.6 4.80005H6.395C5.515 4.80005 4.8 5.52505 4.8 6.41505V25.5851C4.8 26.475 5.515 27.2 6.395 27.2H25.6C26.48 27.2 27.2 26.475 27.2 25.5851V6.41505C27.2 5.52505 26.48 4.80005 25.6 4.80005ZM11.57 24H8.25V13.3101H11.575V24H11.57ZM9.91 8.00005C10.975 8.00005 11.835 8.86005 11.835 9.92505C11.835 10.99 10.975 11.85 9.91 11.85C8.845 11.85 7.985 10.99 7.985 9.92505C7.985 8.86005 8.845 8.00005 9.91 8.00005ZM24.015 24H20.695V18.8C20.695 17.56 20.67 15.965 18.97 15.965C17.24 15.965 16.975 17.315 16.975 18.71V24H13.655V13.3101H16.84V14.77H16.885C17.33 13.93 18.415 13.045 20.03 13.045C23.39 13.045 24.015 15.26 24.015 18.14V24Z" fill="#00CAFF"/>
</svg>
